PathFileType	4	(X/Y/Z)	C:/Users/beibeiliu/ov580/test_trc\sequence.37_training_dense_right.trc
DataRate	CameraRate	NumFrames	NumMarkers	Units	OrigDataRate	OrigDataStartFrame	OrigNumFrames
120	120	19	19	mm	120	135	269
Frame#	Time	ThumbCMC			ThumbMCP			ThumbIP			ThumbTip			IndexMCP			IndexPIP			IndexTip			MiddleMCP			MiddlePIP			MiddleTip			RingMCP			RingPIP			RingTip			PinkyMCP			PinkyPIP			PinkyTip			BackHand1			BackHand2			BackHand3	
		X0	Y0	Z0	X1	Y1	Z1	X2	Y2	Z2	X3	Y3	Z3	X4	Y4	Z4	X5	Y5	Z5	X6	Y6	Z6	X7	Y7	Z7	X8	Y8	Z8	X9	Y9	Z9	X10	Y10	Z10	X11	Y11	Z11	X12	Y12	Z12	X13	Y13	Z13	X14	Y14	Z14	X15	Y15	Z15	X16	Y16	Z16	X17	Y17	Z17	X18	Y18	Z18	
134	1.11667	181.702	-2.18189	93.5766	169.821	-4.06033	63.1789	158.022	1.23013	38.6591	160.139	10.2497	16.8197	161.882	46.9849	56.474	153.348	31.0863	34.1746	169.284	4.15529	45.3692	175.381	48.9951	44.4945	173.224	26.7058	23.7207	187.195	3.42795	46.6104	193.745	41.3598	38.6235	190.197	17.5188	27.744	195.251	0.45179	54.2572	212.693	36.6064	40.1629	201.808	11.8023	35.0031	202.056	1.71202	55.0071	215.462	37.1499	87.1686	226.901	17.8357	103.895	200.262	25.5424	104.751	
135	1.125	177.325	-5.36886	90.1532	164.294	-10.9114	60.0704	155.807	-4.80226	36.25	158.908	3.82428	16.1611	154.83	39.717	55.6978	153.752	25.789	29.6825	168.257	0.543671	39.3419	172.575	43.5345	38.1753	170.165	21.3145	20.3046	182.335	-1.23359	38.6896	188.751	35.5267	32.264	187.093	9.26375	26.5114	194.844	-3.62139	46.4997	207.79	31.3948	35.9086	201.335	5.96104	30.8933	202.573	-4.06627	53.0145	211.355	36.2791	78.952	224.225	18.7929	101.623	194	24.2017	98.2134	
136	1.13333	177.715	-11.9692	89.133	166.624	-13.0832	57.788	158.838	-9.23283	36.1338	157.097	-1.8675	14.4192	155.277	35.4494	51.8839	145.568	18.7564	28.589	166.15	-5.23054	38.7593	168.829	37.9015	36.4122	163.531	17.4077	18.214	180.393	-5.19006	35.7066	188.664	32.5279	31.0917	185.658	7.39576	22.1594	193.843	-8.75869	45.7792	203.466	28.4333	31.7709	199.562	2.69872	28.0725	199.02	-6.59732	51.2231	208.317	34.8831	76.2495	224.773	16.4694	95.3849	192.637	22.0907	96.5683	
137	1.14167	176.454	-16.471	86.5183	164.442	-18.3728	54.7737	153.867	-14.6203	32.4205	156.831	-9.00457	13.4305	148.76	29.5981	46.8109	144.052	12.3542	26.6119	160.32	-11.742	35.5266	164.888	32.7631	34.4315	161.402	7.35517	16.0481	175.969	-10.4961	35.1614	183.468	27.7265	25.8146	181.305	-0.786293	21.1457	190.238	-11.8461	45.7813	198.501	22.3374	27.4516	196.089	-0.489029	24.5969	203.03	-11.134	48.5186	209.08	31.9475	73.2623	217.422	16.7217	95.0346	187.521	17.2028	94.4086	
138	1.15	175.526	-19.2855	84.5181	163.309	-24.6014	54.6001	153.809	-20.7728	31.207	153.167	-14.9413	7.91954	147.472	24.6595	44.1225	142.88	4.78546	23.7452	160.98	-15.2912	33.2714	161.107	28.892	31.1113	160.812	3.17715	14.4854	177.804	-13.0857	29.9628	182.086	24.1092	27.0786	182.555	-3.81049	17.0255	188.335	-15.4856	42.3099	196.978	19.545	25.115	193.769	-3.86686	22.57	199.551	-15.6705	46.2789	202.247	29.8332	71.5432	218.514	16.3133	90.2876	189.404	12.5874	92.6788	
139	1.15833	178.709	-20.5254	83.1983	165.364	-24.204	52.7949	154.514	-24.2635	30.3966	156.272	-17.3763	10.5737	143.004	19.1058	44.5225	141.624	-0.079871	22.9463	157.818	-19.1238	32.0318	159.681	25.1806	30.4295	160.616	-0.116863	11.8825	177.729	-16.4769	29.5371	178.975	19.8275	26.2031	180.112	-4.14553	14.5561	190.378	-17.9395	40.4192	198.697	15.8574	21.9648	193.235	-5.62115	19.2945	198.146	-18.242	44.3385	200.911	25.7061	69.2798	217.585	13.8083	89.958	189.139	11.7011	90.5496	
140	1.16667	176.86	-20.4778	81.3197	162.445	-30.9051	52.9859	156.492	-28.2337	32.0612	154.901	-19.6712	8.99094	144.859	16.4733	45.1672	144.367	-1.12064	20.009	158.781	-23.008	32.4977	160.568	22.5743	31.3262	158.672	-2.49718	10.3869	178.835	-19.6336	28.1609	181.529	18.6798	20.4335	178.154	-7.9879	14.0191	192.295	-20.3674	38.3475	199.369	15.9135	23.9606	193.027	-7.17192	17.2036	196.819	-19.6063	45.1102	206.445	22.5066	66.6787	216.387	11.5846	86.0873	185.793	8.98627	90.2131	
141	1.175	175.829	-25.6345	83.111	163.802	-29.149	50.4115	152.913	-28.5606	29.1438	156.196	-21.6847	8.69164	141.857	15.0537	40.9947	143.775	0.22394	18.3554	160.956	-21.2795	28.9744	163.244	21.66	28.0743	157.435	-2.5885	9.44857	176.173	-21.6402	26.4915	176.985	15.0273	20.5705	180.763	-10.5012	13.2677	187.672	-22.487	34.6713	201.298	14.6848	21.0841	194.731	-11.4826	18.4517	199.916	-20.8431	39.6958	200.391	22.5555	66.8139	219.346	11.4992	86.922	189.119	10.1014	86.7833	
142	1.18333	172.997	-23.9242	79.3602	161.161	-33.4568	51.6511	152.784	-29.3009	28.3223	155.251	-24.4317	8.69755	144.972	15.5646	39.979	141.211	-1.48804	19.106	158.199	-24.4439	28.0446	160.733	20.5022	25.6306	160.387	-0.392073	6.79812	177.006	-22.366	29.6463	178.259	14.2943	17.3318	176.81	-8.6231	11.7797	189.997	-22.9448	37.8019	198.669	12.2873	19.7171	192.454	-10.5597	16.3749	200.295	-24.3225	40.042	202.844	18.9805	67.7332	217.531	13.0929	83.638	185.097	9.12879	88.4458	
143	1.19167	174.834	-22.2954	79.1595	162.475	-33.4687	52.9934	152.326	-30.4686	27.8408	152.869	-22.8521	5.4659	145.126	14.2584	42.5839	141.732	-4.74923	18.7841	161.205	-23.6518	28.0994	161.649	20.3633	27.6756	160.177	-1.67265	6.65924	174.969	-23.7516	29.4105	180.1	15.5996	22.161	181.662	-13.9558	12.9794	188.691	-23.9899	36.0008	200.182	12.994	21.2742	195.211	-11.3077	15.9258	194.338	-23.1667	41.3396	199.218	22.4227	66.2033	217.62	6.68931	87.6896	186.358	7.04439	85.8232	
144	1.2	177.097	-26.1823	83.2224	161.662	-34.2732	52.3381	154.426	-29.4514	30.1647	151.97	-25.837	7.75473	143.335	14.5722	40.2131	144.313	-3.35308	17.5224	156.727	-25.797	29.3307	159.779	18.3277	30.7028	159.613	-4.18967	8.96359	173.836	-24.3417	27.9222	178.956	13.6987	19.7816	180.219	-9.98232	12.0639	190.735	-24.2746	38.1205	200.118	11.4478	19.5971	192.836	-15.2552	19.1367	194.411	-23.0629	39.3714	200.306	19.8612	64.6439	217.359	6.10128	89.2369	185.796	9.06016	87.6741	
145	1.20833	176.572	-25.7658	81.9693	162.551	-30.8599	50.9641	153.606	-30.7035	29.9388	151.98	-23.9322	7.59473	146.147	15.24	39.6877	142.008	-1.02384	18.9086	158	-25.6283	30.2649	161.319	19.948	30.4149	158.572	-3.19559	8.65817	175.897	-23.9307	28.1625	178.592	14.3206	21.6208	178.961	-13.1121	14.149	191.05	-23.4785	38.0311	198.431	11.5053	22.4423	193.154	-12.7556	18.2001	199.685	-24.413	41.3217	205.813	19.356	66.6633	217.515	6.36179	87.7977	189.079	8.22316	87.9499	
146	1.21667	174.813	-23.2267	80.4263	165.141	-30.4454	53.5917	154.315	-26.5745	29.6214	154.38	-23.2296	9.80124	143.371	15.8227	40.7384	140.582	0.579332	21.0093	162.234	-23.2443	30.565	162.589	19.431	30.2436	161.349	-3.71157	9.59581	177.792	-23.0879	33.1616	182.243	14.5008	23.3983	180.963	-12.4695	15.819	190.352	-23.2637	38.4353	199.065	9.66946	19.7442	193.808	-14.5709	21.1626	196.173	-19.8453	46.2992	201.297	21.3099	68.3702	217.939	6.34497	86.1809	189.604	5.46022	89.2759	
147	1.225	174.454	-23.1847	82.2087	165.253	-29.3129	53.9166	156.841	-24.968	31.7447	156.302	-19.121	10.5511	151.295	19.1092	42.1191	146.28	3.20583	19.077	162.122	-21.5813	31.2444	166.776	22.1168	27.0048	163.224	-4.68525	10.7044	175.083	-22.2861	35.3707	183.28	14.8041	24.0258	182.465	-10.0585	15.4063	190.968	-22.4522	40.1199	201.087	11.6169	25.5835	197.114	-12.3355	21.0132	199.463	-22.1457	45.1495	205.709	19.7844	70.3779	216.892	6.6143	87.5551	192.374	6.63364	89.8631	
148	1.23333	176.459	-19.3788	83.7053	163.047	-24.9342	53.1268	154.849	-19.3942	30.0498	156.119	-15.6749	9.79427	152.607	24.4239	41.3848	150.907	5.71045	19.3001	161.055	-19.2241	33.3525	169.427	24.7525	28.7561	166.786	3.3857	9.84772	178.939	-18.0966	35.2505	185.711	16.1986	23.5074	185.126	-8.64745	15.9522	189.695	-19.7092	42.2106	204.586	10.6305	22.5005	200.147	-14.4344	23.5584	200.255	-16.9646	50.3776	209.793	20.6069	68.6737	220.365	5.90726	91.1826	194.911	10.5199	91.8878	
149	1.24167	174.24	-16.3822	85.2092	165.331	-19.9663	57.1888	154.942	-14.2726	30.8204	161.387	-7.84821	10.3986	162.565	30.8584	41.691	155.946	16.152	19.9072	163.902	-10.6272	29.9425	176.339	29.4053	31.4042	169.39	7.28856	11.8956	180.242	-14.5662	36.0781	190.994	18.271	25.4041	186.368	-4.91325	18.2932	193.037	-17.6879	46.5831	208.011	9.87232	23.8994	199.703	-12.5568	24.6236	200.713	-15.9286	51.3328	214.108	20.83	71.8688	225.037	6.06671	91.6152	193.5	12.9805	92.2104	
150	1.25	175.473	-10.1288	86.7398	163.844	-10.4927	54.9533	158.304	-6.43148	33.6222	159.416	-0.520776	9.57855	166.194	36.7871	43.2529	156.512	22.5408	20.7339	163.842	-6.35361	37.7841	183.458	32.9025	28.6079	175.145	8.81717	12.8772	181.885	-9.96599	38.9847	198.536	20.3056	26.3002	187.686	-6.23921	21.1555	190.637	-14.7678	45.1532	212.063	11.4743	27.5587	201.472	-9.27265	23.6194	201.963	-16.6845	51.3973	217.734	22.6175	71.6772	224.871	6.2296	92.2968	198.505	16.4764	91.5507	
151	1.25833	174.728	-1.2109	86.006	161.914	-4.0738	56.9627	161.488	4.81203	33.2087	163.975	6.6647	11.5175	173.958	42.8349	43.819	166.586	29.1125	20.6667	168.331	0.445854	38.0668	192.877	35.6129	30.8089	178.036	15.4285	12.9647	178.183	-5.08896	37.7602	203.79	18.5563	21.3967	189.719	-5.03072	22.1562	192.858	-12.7146	45.8742	219.137	7.74257	25.2788	200.619	-11.1747	27.3272	203.281	-14.5948	53.9114	223.003	19.5042	72.2796	231.505	-0.333976	93.8918	203.063	17.6762	92.1986	
152	1.26667	179.818	2.41512	87.2303	163.856	3.00714	59.5501	158.928	11.9694	31.9063	163.247	13.8593	12.0829	186.358	45.9755	42.9357	171.4	33.6534	21.9272	169.616	7.93436	38.0792	198.116	37.115	26.5566	179.75	18.5069	16.1599	183.028	-2.50212	40.4804	208.875	18.7448	26.1063	189.427	2.46796	22.7442	189.809	-8.38464	48.5054	218.207	5.54794	28.5569	199.796	-13.3132	30.9307	199.78	-13.7924	53.6028	232.404	13.9904	71.5539	227.485	-4.38881	95.4378	206.783	16.4021	94.4269	
